<?xml version="1.0" standalone="no"?>
<!DOCTYPE svg PUBLIC "-//W3C//DTD SVG 20010904//EN"
 "http://www.w3.org/TR/2001/REC-SVG-20010904/DTD/svg10.dtd">
<svg version="1.0" xmlns="http://www.w3.org/2000/svg"
 width="241.000000pt" height="241.000000pt" viewBox="0 0 241.000000 241.000000"
 preserveAspectRatio="xMidYMid meet">
<metadata>
Created by potrace 1.14, written by Peter Selinger 2001-2017
</metadata>
<g transform="translate(0.000000,241.000000) scale(0.100000,-0.100000)"
fill="#000000" stroke="none">
<path d="M315 2205 c-129 -57 -176 -199 -109 -330 27 -53 37 -64 88 -89 43
-21 73 -29 115 -29 140 0 235 96 235 237 0 167 -176 280 -329 211z"/>
<path d="M1125 2209 c-57 -22 -88 -49 -122 -107 -47 -80 -28 -219 39 -282 64
-61 185 -80 268 -42 150 68 181 277 58 388 -61 56 -162 74 -243 43z"/>
<path d="M354 1420 c-81 -18 -143 -77 -169 -162 -18 -61 -12 -118 22 -185 24
-49 36 -62 84 -86 162 -83 332 6 353 186 7 58 -22 142 -62 182 -53 54 -150 81
-228 65z"/>
<path d="M1123 1408 c-133 -49 -185 -197 -117 -333 26 -53 36 -63 88 -89 100
-49 215 -34 284 37 39 41 71 125 67 183 -3 48 -37 126 -69 156 -60 57 -170 77
-253 46z"/>
<path d="M1960 1420 c-144 -26 -225 -190 -162 -331 25 -56 52 -84 112 -111 84
-39 211 -19 267 41 89 95 89 258 0 342 -51 48 -142 73 -217 59z"/>
<path d="M322 608 c-92 -34 -154 -135 -146 -238 2 -25 16 -69 31 -99 23 -44
38 -60 83 -84 96 -52 223 -36 290 36 36 38 63 108 64 167 2 166 -162 278 -322
218z"/>
<path d="M1132 611 c-61 -21 -94 -49 -129 -110 -46 -77 -30 -209 33 -276 82
-87 256 -91 339 -8 63 64 86 171 54 257 -45 120 -173 179 -297 137z"/>
</g>
</svg>
